<svg xmlns="http://www.w3.org/2000/svg" viewBox="0 0 935.8 935.72"><title>Stumptown</title><g id="Layer_2" data-name="Layer 2"><g id="Layer_1-2" data-name="Layer 1"><path d="M472.89,935.69C216.22,938.17,6.22,734.87.14,479.63-6.15,215.71,202.12,8.78,450.83.28,716.9-8.81,929.17,201.5,935.64,455.05,942.37,718.49,732.54,932.81,472.89,935.69Zm-35.63-406-1.07.13c-.52-1.49-1.13-3-1.53-4.48-3.61-13.51-7.28-27-10.68-40.55-1-3.93-2.84-5.41-7-5.25-7.15.27-14.33.15-21.49-.14-4.1-.16-5.58,1.25-5.48,5.42.32,13.66.56,27.33.36,41-.08,4.91,1.54,7.4,6,9.4,28.92,12.82,57.64,26.07,86.6,38.8,5.15,2.27,5.93,5.1,5,10-3.24,16.84-6.19,33.73-9.23,50.61-1.41,7.82-1,8.48,6.72,8.67,11,.28,22.07-.47,33,.63,5.45.56,11.15,3.51,15.62,6.87,2.08,1.56,1.94,6.63,2,10.14.12,3.75,1.43,6.22,4.64,8.12a110.85,110.85,0,0,1,12.93,8.5c2.48,2,5.12,4.73,6,7.64,6.26,21.14,15.28,41.73,14.13,64.51-.18,3.5,1.62,5.66,4.59,7.61,7.08,4.67,14.35,9.26,20.67,14.86,12.32,10.93,26.1,19.55,40.34,27.58,16.39,9.25,32.84,18.39,49.11,27.86,7,4.08,15.63,6.29,18.72,15.18C828.9,768.37,942.5,601.74,906.76,391.23,872.85,191.52,702.8,33.53,489.64,23,284.82,12.84,99.41,143.94,40.89,340.66c-60,201.6,27.79,414.29,210.36,516.28,91.13,50.91,188.85,66.59,291.67,49.95,50.11-8.11,97.27-25.1,142.59-50.42-2.53-1.26-3.81-2-5.15-2.54-16.68-7.14-33.8-13.42-49.92-21.65-12.86-6.56-25.56-3.13-38.62-3a12.5,12.5,0,0,0,3.48,3.31c4.45,2.95,9,5.7,13.34,8.82,1.8,1.31,3.82,3.11,4.46,5.1,2.33,7.27,4.35,14.66,6,22.11.67,3,.11,6.31.11,10.36-2.71-1.24-4.24-1.84-5.67-2.59q-35.81-18.87-71.61-37.72c-2-1.06-4.32-2.15-6.51-2.18-8.66-.12-17.4-.53-26,.44-32.42,3.68-64.79,7.78-97.16,11.9-6.85.87-13.65,1.49-19.76,6-13.17,9.64-26.85,18.59-40.34,27.78-1.55,1.06-3.26,1.9-4.9,2.85l-1.71-.92,15.07-56.17c-16.45,2-31.57,4.55-46.77,5.34-15.87.83-28.49,10.05-43,15.22-1.79-10.22.77-18.49,6.28-26.11,8.13-11.25,18.76-18.81,32.39-21.74a28.22,28.22,0,0,1,10.22-.56,111.29,111.29,0,0,1,17.44,4.29c5.94,2,10.4.38,15.78-2.61,11.93-6.65,18.84-15.8,22.38-29.18,6-22.5,16.37-43,34.18-58.77,3.63-3.22,4.77-6.68,4.72-11.32-.18-18,0-36-.12-54,0-3.72,1.11-5.92,4.88-6.91a102,102,0,0,0,12.32-4.06c4-1.61,7.53-1.23,11.57,0a180.83,180.83,0,0,0,23.27,5.4c5.87.91,6.75-.55,5.5-6.47-3.3-15.63-6.81-31.22-9.93-46.89-1-4.8-3.36-7.44-7.85-9.23-23.34-9.34-46.58-18.92-69.86-28.41-15.18-6.18-14.91-6.19-16.17-22.77-1.6-20.91-3.79-41.78-5.49-62.69-.25-3.08-.24-8.05,1.46-9.05,4.65-2.71,9.29-7.43,15.43-5.49,20.16,6.37,40.21,13.08,60.32,19.57,3.15,1,4.06,2.85,3.66,6-1.07,8.59-1.88,17.21-2.86,25.81S438.3,521.05,437.26,529.72ZM481,780.4c1,4.16,1.34,8.05,2.75,11.53,2.24,5.55,6.53,8.51,12.85,8.4,6.16-.1,10.13-3.24,12.24-8.58a29.34,29.34,0,0,0-.14-22.41c-2.12-5.22-6.2-8-12.06-8.08s-10.23,2.15-12.45,7.42C482.56,772.43,482,776.6,481,780.4Zm-33.88-.25c.68,3.87.95,7.05,1.83,10.05,1.87,6.41,6.55,10,12.68,10.06,6.8.11,11.24-3,13.53-9.56a30.17,30.17,0,0,0-.2-20.55c-2-5.69-6.21-8.59-12-8.86-6.18-.28-10.85,2.2-13.12,7.93C448.35,772.86,447.86,776.87,447.08,780.15ZM522,798.45l.72,1.63c3.51-1,8-1,10.31-3.23,3.91-3.9,6.63-9.09,9.46-14,3.68-6.36,3.18-12.61-.9-17.13s-11.92-5.85-18-3.26a13.13,13.13,0,0,0-8,13.59c.73,5.57,4.48,9.27,10.5,10.39.93.17,1.86.36,3.57.7C526.9,791.24,524.47,794.84,522,798.45Zm-80.53-7H426.82c2.71-2.49,4.4-4,6.06-5.58,1.81-1.71,3.74-3.34,5.37-5.22,3.49-4,4.09-9.92,1.6-13.9-2.93-4.66-10.21-6.79-16.63-4.85-5.1,1.55-8.38,5.71-8.54,12.21,2.81-.54,6.4-.17,7.81-1.75,2.47-2.75,4.7-4.75,7.85-2.31,3.66,2.83,1.64,6.06-.85,8.52a158,158,0,0,1-11.82,10.75c-3.4,2.75-3.88,5.81-2.47,9.63h26C441.27,796.58,441.36,794.5,441.5,791.44Zm3.13-64.38a94.81,94.81,0,0,0,.12,10c.13,1.22,1.57,3.2,2.54,3.28a102.47,102.47,0,0,0,13.46,0,3.32,3.32,0,0,0,2.15-2.47c0-.84-1.35-2.05-2.33-2.35-1.38-.42-3,0-4.46-.22-2.07-.25-5,1-5.13-2.88s2.73-2.94,4.89-3.1c.83-.07,1.78.23,2.48-.08a28,28,0,0,0,3.59-2.21c-1.27-.85-2.48-1.79-3.82-2.51-.52-.28-1.38.14-2-.09-1.74-.69-3.42-1.53-5.13-2.32a26.86,26.86,0,0,1,4.92-2.51c1.55-.45,3.37.07,4.94-.33a3.12,3.12,0,0,0,1.8-2.34,3.28,3.28,0,0,0-1.76-2.37c-1-.44-2.28-.21-3.45-.22C444.62,714.18,444.62,714.18,444.63,727.06Zm21.77,10.28c4.35,4.39,11.39,5.31,16,2.24a7.54,7.54,0,0,0-.44-13.12c-1.43-.81-3.22-1-4.57-1.91a22.56,22.56,0,0,1-3.41-3.49c1.7-.57,3.87-2.09,5-1.53,3.58,1.75,5.17.22,6.62-2.79-3.4-3.64-7.7-3.76-12-2.81-5.64,1.25-8.52,7.38-5.28,11.46,1.51,1.91,4.49,2.58,6.54,4.15A34.19,34.19,0,0,1,479,734c-2.09.36-4.71,1.67-6.16.87C469.16,732.84,467.84,734.66,466.4,737.34Zm31.67-23v0c-2.32,0-4.7-.32-6.94.12-1.38.27-2.54,1.69-3.8,2.6,1.15.84,2.26,2.36,3.45,2.41,3.13.15,3.92,1.58,3.82,4.42a115.33,115.33,0,0,0,.12,13.41c.1,1.18,2,2.22,3,3.32,1.1-1.07,3-2.06,3.15-3.23a82.89,82.89,0,0,0,.13-12.41c-.19-3.59.61-5.72,4.81-5.53.93,0,1.95-1.55,2.92-2.39-1.08-.89-2.07-2.36-3.27-2.56A45,45,0,0,0,498.07,714.31Zm14.25,17.94c-1.88,2.29-3.85,3.66-3.7,4.74.21,1.47,2,2.71,3.17,4,1.26-1.07,3.43-2.07,3.54-3.24C515.45,736.39,513.82,734.82,512.32,732.25Z"/><path d="M576.6,733.09c-3.33-12.23-6.55-24.06-9.86-36.19,6-2.66,12.16-5.11,18.08-8.06,73.12-36.53,123.2-93,142.84-172.88,21.26-86.46.74-164.19-57.43-231.29C626.17,233.83,569.4,204.54,503.1,196.2c-85.17-10.72-161,12.09-223.79,71.77-41.42,39.38-67,88.11-75.73,144.8-11.37,74.08,5.94,141.33,52.07,200.47,38.77,49.71,89.57,81.29,150.89,95.92.63.15,1.25.34,1.91.53l-25.11,31.84c-7.77-2.66-17-5.37-25.87-8.91C268.29,697,205.71,634.36,177.42,542.83c-32.7-105.77-11.18-203,62.11-286.55,48.17-54.94,109.79-87.7,182.27-98,90.48-12.89,172.22,9,242.74,67.43,59.18,49,95.15,112.21,104.92,188.85,11.9,93.44-15.4,174.74-79.41,243.62-31,33.37-68.4,57.54-110.76,74.13C578.52,732.59,577.71,732.77,576.6,733.09Z"/><path d="M543.9,290.39c11.35-1.78,15.48,7.71,22,13.44,1.15,1,1.55,3.27,1.66,5,.24,3.65-.17,7.35.12,11,.39,4.86-1.2,8.51-4.67,12-1.81,1.83-2.65,5.21-2.82,8-.55,9.1,0,18.26-4.68,26.75-2,3.53-4.06,5.48-8.14,4.95a23.08,23.08,0,0,0-3,0c-6.79,0-6.94,0-6.8,6.88.19,10-3.53,18.9-7.11,27.86-.53,1.33-2.24,2.29-3.57,3.16a15.52,15.52,0,0,1-3.28,1.16c-16.69,5.93-16.68,5.93-21.2,23.29a16.61,16.61,0,0,1-3.3,6.89C497,431,494.83,421.31,493,411.55c-.28-1.51.68-3.55,1.67-4.91a30.72,30.72,0,0,1,5.24-5.33c5.67-4.72,9.35-10.11,8.19-18.07-.24-1.61,2.1-3.61,3.29-5.4a1.69,1.69,0,0,1,.86-.48c8.4-2.53,11.55-7.51,11.28-16.83-.28-9.52,5.29-17.16,14.27-21.78,8.06-4.14,7.91-4.24,1.21-10.5-10.09-9.42-9.06-5.25-3.49-17.84,2.28-5.15-.32-15.27-5.1-18.38a6.17,6.17,0,0,0-3.75-.73q-41,4.32-81.91,8.81c-18.86,2.09-37.69,4.33-56.53,6.55-1.76.21-3.48.77-6,1.35,1.66,3.78,2.83,7.19,4.61,10.25,1.94,3.35,1.34,5.72-1.33,8.29a105.73,105.73,0,0,0-9.11,9.94c-4.27,5.33-3.44,8.55,2.32,12.12,5.07,3.16,10.24,6.27,14.79,10.09,2,1.65,3.32,5,3.5,7.64.48,7.13.31,14.32.14,21.48-.09,3.45,1.15,5.31,4.33,6.9,13.31,6.64,10.74,2.67,11,17.63.06,2.95,0,5.9,0,9.94,6-1.84,11.27-3.23,16.34-5,4.12-1.46,6.11-.58,6.79,4,1.34,9,3.11,18,4.63,27.05a4.4,4.4,0,0,1-1.15,3.54c-2.78-5.4-5.84-10.67-8.24-16.23-1.81-4.19-4.46-5.6-8.88-5.39-6.48.31-13,0-19.49.12-3.22.07-5.09-1.19-6.72-4a50.12,50.12,0,0,1-6.6-22.75,12.45,12.45,0,0,0-9.74-11.76c-8.53-1.91-13-8.92-18.58-14.45-.74-.73-.4-3.12.13-4.47,1.27-3.25,2.9-6.36,4.48-9.48,2.4-4.76,1.68-9-1.92-12.84-5.26-5.57-10.44-11.23-15.86-16.63-2.58-2.57-4.09-5.06-2.76-8.79a31,31,0,0,0,1-5.38c1.42-8.69,1.41-8.76-7.63-8-6.3.52-12.59,1.23-18.87,1.95-3.26.37-4.57-1-4.56-4.21,0-6.83,0-13.67-.09-20.49,0-3.11,1.32-4.51,4.37-4.84q36.5-3.92,73-7.95,37.72-4.14,75.45-8.29,39.94-4.38,79.9-8.72c10.92-1.19,21.85-2.32,32.73-3.77,4.35-.57,6.86.47,6.79,5.18-.11,7-.11,14-.65,20.91-.1,1.2-2.53,3-4.05,3.16-11.39,1.44-22.83,2.54-34.25,3.76-1.26.13-2.5.36-3.76.54C544.15,289.45,544,289.92,543.9,290.39ZM390,370.26c-1.22-3.17-1.75-7-3.87-9.33-1.77-2-5.43-3-8.21-3-1.49,0-3.21,3.12-4.28,5.12a26.66,26.66,0,0,0-1.86,6.2c-1.31,5.31,3.48,11.57,9,11.83C387.12,381.41,388.85,379.25,390,370.26Zm143.11-5.65.66-1.24c9.24,1.77,15.61-1.28,18.06-10.32.47-1.74.48-4.47-.55-5.55-2.06-2.16-3.85-5.54-8.23-3.73-9.13,3.75-12.08,7.5-12.11,17.18C530.92,362.17,532.34,363.39,533.1,364.61Zm28-49.84c-.23-8.49-2.66-10.45-12.55-10.17-2.55.07-7.14,7.29-7.17,11.27,0,2.5,9.05,10.14,12.06,10.17C557.05,326.08,561.26,319.87,561.13,314.77Zm-208.6,7.38c.83,3.09,1.16,5.64,2.18,7.87,1.82,4,11,6.2,13.16,3.27,2.36-3.2,4.86-6.52,6.18-10.18.68-1.92-.57-5-1.88-7-.71-1-3.55-1.34-5.14-.91a79.91,79.91,0,0,0-11.22,4.13C354.49,319.94,353.51,321.29,352.53,322.15Zm159.86,74.53c.56.6,1.27,2,2.37,2.48,7.88,3.73,11.15,2.35,14-5.67a31.65,31.65,0,0,1,1.31-3.77c2.27-4.54-.67-6.94-3.9-8.82-2.73-1.58-10.83,1.09-11.5,3.67C513.67,388.27,513.21,392.09,512.39,396.68Z"/><path d="M482.79,497.77c1.17,3.18,2.4,6.34,3.51,9.54,2.67,7.7,5.41,15.38,7.88,23.15,1.33,4.17,3.26,5.45,7.7,3.88,11.61-4.09,23.36-7.81,35.11-11.47,3.73-1.16,5.3-3,5.29-7.11,0-12.32.28-24.64.69-36.95.15-4.44-1.72-5.29-5.75-4.91-23.53,2.24-47.07,4.3-70.61,6.34-6.65.58-7.34.05-8.3-6.75Q452.09,429.26,446,385q-4.35-31.39-8.72-62.78c-1-6.88-.83-7.19,5.93-7.2,10.33,0,20.66.2,31,0,4.36-.09,6,1.49,5.8,5.8q-1.71,30.17-3.22,60.34c-.86,17-1.63,33.93-2.42,50.89-.31,6.82-.69,13.64-.82,20.46s.15,7.11,7.09,5.41c15.19-3.72,30.42-7.32,45.52-11.36,5.91-1.58,11.18-.64,17,.63,10.8,2.35,15.25,8.18,16.76,19.06,2.52,18.1,6.64,36,10.35,53.9,1,4.85,0,8.06-4.21,11-14.35,10-28.48,20.27-42.63,30.53a10.24,10.24,0,0,1-10.27,1.51c-11-3.87-22.12-7.32-33.06-11.31-1.87-.68-4.49-3.34-4.36-4.88,1.43-16.37,3.34-32.69,5.11-49Z"/><path d="M91.23,504.05c-7-1.66-12.62-3-18.21-4.3-6.16-1.42-12.41-2.54-18.46-4.34-1.79-.53-4-2.7-4.35-4.44-1.47-8-2.24-16.15-3.46-24.21-.44-3,.62-4.18,3.44-4.86q42.72-10.18,85.39-20.57c3.3-.8,4.95.35,5.67,3.64,1.62,7.31,3.26,14.62,5.23,21.84,1,3.64-.18,5.08-3.64,5.85-13,2.87-25.95,5.9-38.92,8.9a4.85,4.85,0,0,0-3,2.08l48.5,11.82.33,1.34-44.48,25c7.65,0,14.61.12,21.57,0,7.82-.18,15.64-.6,23.45-.92,2.91-.12,4.2,1.24,4.28,4.18.2,7.49.47,15,.88,22.46.21,3.68-1.36,5-4.93,5.15-28.45,1-56.9,2.11-85.34,3.36-4.93.22-6.78-1.71-7.21-6.43-.6-6.62-1.57-13.23-2.75-19.77-.74-4.12.59-6.5,4.28-8.38,8.75-4.46,17.34-9.22,26-13.88C87,506.75,88.43,505.77,91.23,504.05Z"/><path d="M320.94,128.41c-4.48-15.1-8.91-30.22-13.44-45.3-3.76-12.52-3.8-12.5,8.42-17.32,3.56-1.4,7.23-2.58,10.67-4.24s4.79-.34,5.69,2.83q12.18,43,24.49,85.92c.88,3,.23,4.65-2.47,6-7,3.5-14,7-20.86,10.76-3.37,1.83-4.85-.33-6.58-2.4Q313,148.19,299.24,131.73a14.72,14.72,0,0,0-5.52-4.46c1.71,6.7,3.38,13.41,5.12,20.1,2.44,9.33,4.8,18.69,7.47,28,1.08,3.78.11,5.81-3.44,7.47-6.63,3.1-13.1,6.56-19.55,10-2.49,1.34-4.27,1.11-6.05-1.13q-28.12-35.41-56.35-70.76c-1.78-2.24-1.56-3.74.81-5.26,6.17-4,12.31-8,18.39-12,2.9-2,4.2.08,5.66,1.94l31.42,40.14a8.42,8.42,0,0,0,4.08,3.16Q278,137,274.62,125.1c-2.67-9.45-5.24-18.92-8.1-28.31-1-3.33-.29-5.12,2.82-6.79,13.28-7.17,13.25-7.28,22.65,4.46q12.79,16,25.53,32.05c.71.89,1.3,1.87,2,2.8Z"/><path d="M440.4,90.41c-.58-5.87-1.11-11.74-1.75-17.61-.93-8.6-1.75-17.21-3-25.77-.51-3.55.75-4.77,4-5.29,6.41-1,12.76-2.38,19.15-3.49s6.49-1.07,7.3,5.57c1.5,12.21,2.82,24.45,4.25,36.67,1.88,16.2,3.69,32.41,5.78,48.58.57,4.44-.5,6.41-5.23,6.77-7.13.54-14.22,1.61-21.3,2.66-3.52.52-5.93-.46-8.13-3.38-9.79-13-19.79-25.95-29.72-38.89a9.7,9.7,0,0,0-4.39-3.52c.84,7.69,1.65,15.38,2.53,23.07.81,7.11,1.58,14.23,2.57,21.31.47,3.39-.86,4.85-4.09,5.4q-10.58,1.78-21.09,3.93c-3.54.73-4.86-.79-5.23-4q-4.55-39.91-9.16-79.83c-.34-3-.57-6-1-8.92-.55-3.45,1-4.84,4.27-5.19,8.11-.9,16.18-2.25,24.31-2.63,2.17-.1,5.07,2.16,6.64,4.13,9.64,12.12,19,24.47,28.45,36.72,1.1,1.43,2.32,2.78,3.48,4.17Z"/><path d="M758.83,594.75c1.95-31.64,19.82-53.21,50.69-53.53,29.12-.31,53,22.82,51.75,51.43-1.22,29-20.26,52.07-49.75,52.07C778.66,644.73,758.1,619.41,758.83,594.75Zm74.38-2c.19-10.49-12.38-21-25.39-21.3-11.42-.24-20.32,8.62-20.57,20.46-.23,11,12.33,22,25.27,22.26C823.32,614.41,833,604.4,833.21,592.79Z"/><path d="M190.27,266.09a52.73,52.73,0,0,1-52.77-51c-.64-23.2,21.73-54,53.84-52.9,25.44.85,49.32,24.69,49.89,51.14C241.75,237.28,216.78,268,190.27,266.09Zm21.06-48.84c-.1-12.4-11.94-24.95-23.47-24.87-11.28.07-21.83,9.74-21.77,20,.06,11.19,13.59,24.55,25,24.67C200.8,237.1,211.4,226.76,211.33,217.25Z"/><path d="M661.4,192.84a37.49,37.49,0,0,1-21.46-5.6c-10.26-6.2-20.37-12.64-30.62-18.87-3-1.8-3.77-3.35-1.65-6.68q23.77-37.27,47.17-74.79c1.53-2.45,2.89-3.78,5.88-1.8,10.41,6.89,21.35,13.05,31.35,20.48,33.51,24.86,18.78,65.48-3.32,80.94C680.59,192.22,670.85,192.19,661.4,192.84Zm7.51-68.54-21.93,35c7,4.59,13.42,6.26,20.33,2.24,8-4.68,13-11.36,12.58-21C679.61,133.26,676.06,128.05,668.91,124.3Z"/><path d="M74.54,604.72c4.08-2.14,7.72-4.08,11.39-6,15.71-8,31.36-16.19,47.16-24,18.66-9.29,35.22-4.77,45.87,13.18a105.57,105.57,0,0,1,10.45,24.18c3.26,11.23-.76,21.18-9.46,28.69-4.35,3.75-9.6,6.59-14.73,9.29-15.46,8.15-31.12,15.93-46.59,24.08-3.75,2-5.87,1.59-7.92-2.25-3.22-6-6.7-11.91-10.48-17.59-2.54-3.83-2.14-5.79,2.14-7.9,15.22-7.52,30.27-15.41,45.38-23.16,1.48-.76,3-1.52,4.43-2.31,7.87-4.23,9.27-7.2,6.2-13.08-3.25-6.21-6.41-7-14.6-2.81-15.75,8-31.5,16-47.08,24.23-4.36,2.31-6.83,2.24-9.3-2.51C83.58,619.4,79.07,612.4,74.54,604.72Z"/><path d="M826.2,517c-9.31-.52-18.61-1.21-27.92-1.48-4-.12-6.34-1.41-7.91-5.28-10.47-25.65-3.27-57.1,17.87-71.66,15.48-10.66,33.08-12.87,50.3-4.57s27.06,22.46,29,41.9c1.32,13.34-2,25.32-9,36.57-2.07,3.35-3.89,4.43-7.35,1.49a169.77,169.77,0,0,0-14.75-11.11c-3.32-2.24-3.33-4.14-1.09-7.21,6.29-8.62,4.68-18.07,1.6-27.17-.83-2.47-4.31-5.38-6.85-5.68A173,173,0,0,0,824,461.73c-2.29.07-5.56,3-6.48,5.31-2,5-2.91,10.48-3.87,15.83-.75,4.16,2.44,4.31,5.42,4.54s5.43.08,5.58-3.74c0-1.17.19-2.32.23-3.49.22-7.77.46-8.09,7.56-5.66,16.51,5.68,13,1.6,12.66,18.63-.15,7-1,13.94-1.34,20.92-.15,2.77-1.34,3.83-4.07,3.65-4.48-.3-9-.43-13.47-.63Z"/><path d="M88.16,347.28c26.08-.35,39.71,21.4,35.56,40.6-1.82,8.45-2.81,7,6.29,9,4.71,1,9.46,1.94,14.24,2.49,4.53.51,5.87,2.74,5.24,7-1,6.9-1.88,13.83-2.53,20.78-.37,4-2.17,5-5.92,4.25-15-2.83-30.07-5.48-45.12-8.21-13.9-2.52-27.79-5.13-41.7-7.54-3.35-.59-5-1.66-4.24-5.49,2.46-12.22,4.27-24.58,7.07-36.72C61,356.29,72.08,347.31,88.16,347.28Zm12.22,38.05c0-6.18-3.41-10-9.52-10.59-6.73-.68-10.54,2.12-11.67,9.15-.19,1.23,1.29,3.69,2.44,4A119.4,119.4,0,0,0,94.3,390.3C99.67,391.2,100.39,390.6,100.38,385.33Z"/><path d="M312.31,734.52c-5.42,4.93-10.72,10-16.33,14.64-1,.81-3.78.62-4.92-.22-3.33-2.45-6.16-5.58-9.36-8.22-2.18-1.79-4.47-3.82-7.06-4.59s-6.56-1.34-8.65,0c-3.37,2.14-1.28,5.67.43,8.38,4.79,7.58,9.93,14.84,11.23,24.18,2.58,18.58-12.14,34-30.77,31.51-16.24-2.17-29.36-10.05-40-22.43-2.18-2.54-2.14-4.47.15-6.83,3.93-4.07,7.8-8.2,11.45-12.51,2.39-2.82,4.11-2.31,6.5,0,4.05,3.92,8.33,7.61,12.67,11.21a9.62,9.62,0,0,0,4.89,2.27c1.81.14,4.19-.29,5.39-1.44.84-.81.67-3.49,0-4.9-3.31-7.25-7.38-14.18-10.25-21.59a30.55,30.55,0,0,1-2.11-14.07c2.26-18.34,19.67-29.1,38-24.07C285.78,709.16,303,721.59,312.31,734.52Z"/><path d="M758.73,292.73c-6.71.37-12.72-2.2-18.09-6.49-11.69-9.35-18.77-21.85-24.26-35.45-1-2.53-.26-4.11,2.16-5.17,5.63-2.49,11.28-5,16.83-7.6,2.79-1.33,3.92.11,5,2.25,2.28,4.44,4.5,8.92,7,13.21a19.07,19.07,0,0,0,5.08,6c1.75,1.22,5.13,2.33,6.4,1.46,1.71-1.17,2.91-4.33,2.82-6.57-.15-3.93-1.88-7.78-2.17-11.72a88.54,88.54,0,0,1,.05-15.87c1.61-15.45,19.28-27.16,36.37-20.36,17.27,6.87,27.3,20.64,33.08,37.77.4,1.19-.68,3.78-1.81,4.42-5.64,3.21-11.53,6-17.3,8.92-2.63,1.34-3.45-.35-4.42-2.31-2.59-5.19-5.23-10.37-8.07-15.43a9.77,9.77,0,0,0-3.77-3.85c-1.63-.82-4-1.39-5.52-.78-1.06.41-1.84,3-1.75,4.63.48,7.95,1.77,15.88,1.87,23.82C788.49,281,776.5,292.68,758.73,292.73Z"/><path d="M848,353.46c-3-7.5-4.95-14.79-8.71-20.95-5.42-8.9-12.85-11.27-22.76-8.06A54.72,54.72,0,0,0,802,331.86c-2,1.43-3.46,5-3.59,7.66-.42,8.9,2.58,17,7.62,24.3,1,1.46,2.08,2.89,3.81,5.28-9.72,2.28-18.67,4.46-27.67,6.38-.86.18-2.52-1-3.06-2-13.25-23.73-16.35-48.06,5.2-69,23.21-22.53,63.87-20.56,81,13.12,2.91,5.73,4.66,12.07,6.64,18.23.41,1.28,0,3.82-.94,4.37C863.13,345,855.05,349.47,848,353.46Z"/><path d="M687.42,774.82l20.24-16.3a5.38,5.38,0,0,0-.21-1.08c-6.31-10.59-6.31-10.59-15.77-3.18-6,4.73-6,4.73-10.81-1.24-2.81-3.52-5.52-7.11-8.4-10.56-1.77-2.14-1.6-3.7.67-5.35,2.83-2.06,5.35-4.55,8.26-6.47s2.77-3.48.73-6c-5.45-6.69-10.7-13.56-16.53-21,7.61-6.71,14.87-13.25,22.4-19.47.54-.45,3.48,1,4.48,2.26,12.5,15.59,24.86,31.3,37.25,47,5.89,7.44,11.69,15,17.71,22.3,2.34,2.85,2.7,4.65-.65,7.21-11.25,8.58-22.3,17.44-33.31,26.33-2.58,2.09-4.61,2.62-7.38.32C700.22,784.72,694.14,780.1,687.42,774.82Z"/><path d="M132.85,704.54c6.76-6.18,13.17-12.18,19.8-17.92.71-.61,3.2-.21,4.06.59a61.06,61.06,0,0,1,7.39,8.11c2.7,3.57,4.78,3.86,8.27.55,13.52-12.84,27.43-25.26,41-38,3.41-3.2,5.72-3.39,8.89.23,5.47,6.25,11.33,12.15,18.47,19.74-1.21.7-3.36,1.48-4.93,2.91-14.57,13.19-29,26.53-43.56,39.71-2.39,2.17-2.67,3.63-.26,6,3.75,3.71,7.12,7.8,11.38,12.54-5.54,3-10.42,5.66-15.31,8.3-10.51,5.68-10.56,5.73-18.55-2.9C157.41,731.32,145.41,718.19,132.85,704.54Z"/><path d="M119.07,282c12,5.54,23.51,10.82,35,16.08,7.26,3.33,14.49,6.73,21.82,9.9,3.29,1.43,4.07,3.28,2.67,6.63-2.87,6.91-5.55,13.9-8.1,20.94-1.21,3.33-2.74,3.76-5.95,2.26-17.79-8.3-35.76-16.24-53.5-24.66-4.64-2.2-6.92-1.46-8.56,3.28-1.13,3.28-2.85,6.37-4.26,9.57-1.13,2.54-2.57,3.25-4.94,1.29-5.64-4.68-11.49-9.11-16.94-14-1.17-1.05-1.93-4-1.31-5.4,7.85-17.63,16-35.13,24-52.68,1.33-2.9,3-3.49,5.92-2.07q9.18,4.53,18.56,8.62c3,1.32,3.47,3,2.1,5.85C123.42,272.11,121.47,276.69,119.07,282Z"/><path d="M716.89,696.54c-5.66-7.34-10.88-14-15.85-20.76-.56-.78-.16-3,.58-3.89,10.81-13.32,21.77-26.52,32.64-39.8,1.83-2.23,3.34-2,5.41-.25q34.07,28.2,68.26,56.25c2.79,2.28,2.46,4.1.54,6.64-4.31,5.71-8.6,11.46-12.56,17.42-2.45,3.69-4.45,4-7.88,1.07-14.38-12.14-29-24-43.45-36.06-7-5.77-6.92-5.78-12.54,1.08C727.21,684.12,722.34,690,716.89,696.54Z"/><path d="M776.15,172.31c-6.78,7-13.06,13.61-19.47,20.08C741.46,207.77,726.12,223,711,238.49c-2.6,2.65-4.55,2.59-7.13.26-5.31-4.81-10.63-9.61-16.18-14.12-3.26-2.64-3.3-4.51-.31-7.5,17.53-17.55,34.91-35.26,52.31-52.93,3.27-3.32,6.33-6.86,9.77-10,1.06-1,3.77-1.76,4.5-1.15C761.33,159.16,768.48,165.58,776.15,172.31Z"/><path d="M524.82,127c1.78-5.43,3.54-10.86,5.34-16.28,3-8.85,3-8.84-4.45-14.16q-7.22-5.19-14.43-10.41c.09-.47.18-.94.26-1.4,6.83,0,13.68-.43,20.46.13,5.48.46,7.73-1.67,9-6.71,1.56-6.39,3.83-12.61,5.8-18.89l1.32-.13c1.88,6,3.77,12,5.62,18.06C556,84.74,556,84.74,564,84.73a112.58,112.58,0,0,1,19.79,1.19Q577.9,90.18,572,94.44c-12.61,9.23-10.72,5.14-6.33,19.24,1.42,4.55,3,9,5,15.11-2.58-1.57-3.93-2.26-5.14-3.15-4-2.94-8-6-12-8.93-7.59-5.61-5.25-4.94-12.48.14-5.09,3.58-10,7.38-15,11.08Z"/><path d="M502.05,780.68c-.62,3-.87,6-1.94,8.73a5.75,5.75,0,0,1-4,3c-1.14.14-3.13-1.36-3.67-2.6a22.33,22.33,0,0,1-.12-17.81,5.57,5.57,0,0,1,4.13-2.71c1.18-.07,3.1,1.49,3.58,2.75C501.1,774.76,501.42,777.75,502.05,780.68Z"/><path d="M468.1,780.84c-.75,3.11-1.05,6.32-2.31,9.09-1.69,3.72-5,3.66-7.29.24-2.49-3.74-2.51-15,0-18.75,2.17-3.29,5.79-3.35,7.39.25C467.09,774.45,467.36,777.67,468.1,780.84Z"/></g></g></svg>
